<svg width="137" height="32" viewBox="0 0 137 32" fill="none" xmlns="http://www.w3.org/2000/svg">
<path d="M39.1228 0.0766992H41.5603V11.3227H47.3567V13.6237H39.1228V0.0766992Z" fill="white"/>
<path d="M48.5279 0.0766992H50.9846V2.23386H48.5279V0.0766992ZM48.5855 4.04588H50.927V13.6237H48.5855V4.04588Z" fill="white"/>
<path d="M56.2247 13.8154C55.5722 13.8154 54.9676 13.6972 54.411 13.4607C53.8608 13.2178 53.3937 12.8951 53.0099 12.4924C52.6324 12.0833 52.3637 11.6295 52.2038 11.131L54.0655 10.3065C54.2318 10.7539 54.4718 11.1278 54.7853 11.4282C55.0987 11.7286 55.5402 11.8788 56.1096 11.8788C56.4487 11.8788 56.7334 11.8213 56.9637 11.7062C57.2004 11.5912 57.3763 11.4474 57.4915 11.2748C57.6067 11.0958 57.6642 10.9169 57.6642 10.7379C57.6642 10.5334 57.5875 10.364 57.4339 10.2298C57.2868 10.0955 57.1012 9.99007 56.8773 9.91337C56.6534 9.83028 56.3303 9.73441 55.9081 9.62575C55.2747 9.45957 54.7533 9.29019 54.3438 9.11762C53.9408 8.94504 53.5889 8.6766 53.2882 8.31228C52.9939 7.94156 52.8467 7.44621 52.8467 6.82623C52.8467 6.18068 53.0099 5.63419 53.3362 5.18678C53.6624 4.73937 54.0943 4.40381 54.6317 4.18011C55.1755 3.9564 55.7673 3.84455 56.4071 3.84455C57.2196 3.84455 57.9361 4.02671 58.5567 4.39103C59.1773 4.75535 59.6731 5.26668 60.0442 5.92501L58.2304 6.91251C58.0321 6.55459 57.7826 6.26377 57.4819 6.04006C57.1876 5.80996 56.8037 5.69492 56.3303 5.69492C55.9592 5.69492 55.6585 5.77481 55.4282 5.9346C55.2043 6.09439 55.0923 6.28933 55.0923 6.51943C55.0923 6.6984 55.1627 6.8486 55.3035 6.97004C55.4442 7.09148 55.6202 7.19055 55.8313 7.26725C56.0488 7.34395 56.3527 7.43982 56.743 7.55487C57.4019 7.74023 57.9457 7.93198 58.3744 8.13011C58.803 8.32186 59.1741 8.61907 59.4876 9.02174C59.8075 9.42441 59.9674 9.95811 59.9674 10.6228C59.9674 11.3259 59.7883 11.9171 59.43 12.3965C59.0717 12.8759 58.6079 13.2338 58.0385 13.4703C57.4691 13.7004 56.8645 13.8154 56.2247 13.8154Z" fill="white"/>
<path d="M65.0636 13.8154C64.443 13.8154 63.9088 13.7004 63.461 13.4703C63.0131 13.2402 62.6677 12.9142 62.4245 12.4924C62.1878 12.0641 62.0695 11.5592 62.0695 10.9776V6.00171H60.5244V4.04588H62.1079V1.66821L64.411 0V4.04588H66.8102V6.00171H64.411V10.5653C64.411 10.9999 64.5038 11.3067 64.6893 11.4857C64.8813 11.6647 65.1436 11.7542 65.4763 11.7542C65.7002 11.7542 65.9305 11.7222 66.1672 11.6583C66.4039 11.588 66.6183 11.5049 66.8102 11.409V13.5278C66.6055 13.6045 66.3432 13.6716 66.0233 13.7292C65.7098 13.7867 65.3899 13.8154 65.0636 13.8154Z" fill="white"/>
<path d="M72.4918 13.8154C71.4362 13.8154 70.5437 13.5885 69.8143 13.1347C69.085 12.6809 68.538 12.0801 68.1733 11.3323C67.815 10.5781 67.6359 9.75678 67.6359 8.86834C67.6359 7.99909 67.8086 7.18096 68.1541 6.41397C68.4996 5.64698 69.0242 5.02699 69.728 4.55401C70.4381 4.08104 71.3082 3.84455 72.3382 3.84455C73.3875 3.84455 74.2448 4.08743 74.9101 4.57319C75.5755 5.05256 76.0521 5.65976 76.34 6.3948C76.6343 7.12344 76.7815 7.88404 76.7815 8.6766C76.7815 8.86834 76.7719 9.0537 76.7527 9.23267C76.7399 9.40524 76.7207 9.52668 76.6951 9.59699H70.1118C70.3357 10.9967 71.1355 11.6966 72.511 11.6966C72.9652 11.6966 73.3811 11.6167 73.7585 11.4569C74.136 11.2972 74.4879 11.0383 74.8142 10.6804L76.4264 12.0897C75.9018 12.6713 75.3164 13.106 74.6702 13.3936C74.024 13.6748 73.2979 13.8154 72.4918 13.8154ZM74.4783 7.9096C74.4783 7.67951 74.4527 7.47817 74.4015 7.3056C74.2863 6.82623 74.04 6.45871 73.6626 6.20305C73.2915 5.94099 72.8437 5.80996 72.319 5.80996C71.1035 5.80996 70.3677 6.50984 70.1118 7.9096H74.4783Z" fill="white"/>
<path d="M78.3557 4.04588H80.6973V5.15802C81.0619 4.717 81.4938 4.38783 81.9928 4.17052C82.4918 3.9532 82.9973 3.84455 83.5091 3.84455C84.3024 3.84455 84.9614 4.0331 85.486 4.4102C86.0106 4.78731 86.3945 5.28266 86.6376 5.89625C86.8871 6.50345 87.0118 7.16179 87.0118 7.87125V13.6237H84.6703V8.16846C84.6703 7.52291 84.5103 7.002 84.1904 6.60572C83.8706 6.20305 83.4195 6.00171 82.8373 6.00171C82.1592 6.00171 81.6313 6.19666 81.2539 6.58654C80.8828 6.97004 80.6973 7.56765 80.6973 8.37939V13.6237H78.3557V4.04588Z" fill="white"/>
<path d="M94.3057 13.8154C93.7683 13.8154 93.2564 13.7228 92.7702 13.5374C92.2904 13.3457 91.8905 13.0548 91.5706 12.665V13.6237H89.1523V0.0766992H91.5706V5.00462C91.8905 4.60834 92.284 4.31753 92.751 4.13217C93.218 3.94042 93.7235 3.84455 94.2673 3.84455C95.1374 3.84455 95.8827 4.07145 96.5033 4.52525C97.1303 4.97266 97.6037 5.57667 97.9236 6.33727C98.2499 7.09148 98.413 7.92239 98.413 8.82999C98.413 9.73121 98.2499 10.5621 97.9236 11.3227C97.6037 12.0833 97.1335 12.6905 96.5129 13.1443C95.8987 13.5917 95.163 13.8154 94.3057 13.8154ZM93.7203 11.6583C94.4944 11.6583 95.0766 11.3994 95.4669 10.8817C95.8571 10.3576 96.0522 9.67369 96.0522 8.82999C96.0522 7.9863 95.8539 7.29921 95.4573 6.7687C95.067 6.23181 94.488 5.96336 93.7203 5.96336C92.9461 5.96336 92.3575 6.22861 91.9545 6.75912C91.5578 7.28962 91.3595 7.97991 91.3595 8.82999C91.3595 9.67369 91.5578 10.3576 91.9545 10.8817C92.3575 11.3994 92.9461 11.6583 93.7203 11.6583Z" fill="white"/>
<path d="M104.037 13.8154C103.077 13.8154 102.223 13.5917 101.475 13.1443C100.726 12.6905 100.147 12.0833 99.7377 11.3227C99.3283 10.5557 99.1236 9.71843 99.1236 8.81082C99.1236 7.9096 99.3283 7.08189 99.7377 6.32768C100.147 5.56708 100.726 4.96308 101.475 4.51567C102.223 4.06825 103.077 3.84455 104.037 3.84455C104.997 3.84455 105.851 4.06825 106.599 4.51567C107.348 4.96308 107.927 5.56708 108.336 6.32768C108.746 7.08189 108.95 7.9096 108.95 8.81082C108.95 9.71843 108.746 10.5557 108.336 11.3227C107.927 12.0833 107.348 12.6905 106.599 13.1443C105.851 13.5917 104.997 13.8154 104.037 13.8154ZM104.037 11.8021C104.6 11.8021 105.067 11.6679 105.438 11.3994C105.809 11.1246 106.081 10.7635 106.254 10.316C106.427 9.86224 106.513 9.3605 106.513 8.81082C106.513 7.95435 106.308 7.25127 105.899 6.70159C105.496 6.14552 104.875 5.86749 104.037 5.86749C103.474 5.86749 103.007 6.00171 102.636 6.27016C102.265 6.53221 101.993 6.88375 101.82 7.32477C101.647 7.76579 101.561 8.26114 101.561 8.81082C101.561 9.3605 101.647 9.86224 101.82 10.316C101.993 10.7635 102.265 11.1246 102.636 11.3994C103.007 11.6679 103.474 11.8021 104.037 11.8021Z" fill="white"/>
<path d="M113.624 13.8154C112.831 13.8154 112.172 13.6269 111.648 13.2498C111.129 12.8727 110.749 12.3805 110.506 11.7733C110.269 11.1661 110.15 10.5078 110.15 9.79832V4.04588H112.463V9.50111C112.463 10.1467 112.623 10.6676 112.943 11.0639C113.263 11.4601 113.714 11.6583 114.296 11.6583C114.981 11.6583 115.512 11.4633 115.889 11.0734C116.267 10.6836 116.455 10.0859 116.455 9.2806V4.04588H118.778V13.6237H116.455V12.502C116.097 12.9494 115.665 13.2817 115.16 13.4991C114.654 13.71 114.143 13.8154 113.624 13.8154Z" fill="white"/>
<path d="M121.177 4.04588H123.461V5.65657C123.66 5.0941 123.999 4.65308 124.479 4.3335C124.958 4.00753 125.477 3.84455 126.033 3.84455C126.36 3.84455 126.676 3.90207 126.983 4.01712C127.297 4.13217 127.565 4.30474 127.789 4.53484L126.724 6.45232C126.398 6.23501 126.049 6.12635 125.678 6.12635C125.294 6.12635 124.93 6.25098 124.584 6.50026C124.245 6.74314 123.97 7.12344 123.759 7.64116C123.548 8.15888 123.442 8.80443 123.442 9.57781V13.6237H121.177V4.04588Z" fill="white"/>
<path d="M132.579 12.1281C133.333 12.2303 133.97 12.3645 134.488 12.5307C135.013 12.6905 135.448 12.9654 135.793 13.3552C136.139 13.7387 136.312 14.2724 136.312 14.9563C136.312 15.653 136.126 16.2411 135.755 16.7204C135.39 17.2062 134.888 17.5673 134.248 17.8038C133.609 18.0403 132.882 18.1585 132.07 18.1585C131.091 18.1585 130.256 18.0115 129.565 17.7175C128.874 17.4299 128.353 17.0272 128.001 16.5095C127.649 15.9982 127.473 15.4101 127.473 14.7454C127.473 14.5984 127.486 14.461 127.511 14.3332L128.625 13.3936C127.998 12.9718 127.684 12.3486 127.684 11.5241C127.684 11.115 127.758 10.7507 127.905 10.4311C128.059 10.1115 128.282 9.82389 128.577 9.56822C128.321 9.26143 128.122 8.92267 127.982 8.55196C127.847 8.17486 127.78 7.77858 127.78 7.36312C127.78 6.68561 127.959 6.08161 128.318 5.5511C128.676 5.01421 129.156 4.59556 129.757 4.29515C130.358 3.99475 131.011 3.84455 131.715 3.84455C132.131 3.84455 132.531 3.89888 132.914 4.00753C133.298 4.1098 133.653 4.26 133.98 4.45814L135.448 3.20219L136.667 4.68824L135.275 5.80996C135.55 6.30212 135.688 6.85819 135.688 7.47817C135.688 8.16846 135.512 8.77886 135.16 9.30936C134.808 9.83987 134.335 10.2521 133.74 10.5461C133.145 10.8338 132.495 10.9776 131.792 10.9776C131.145 10.9776 130.538 10.8529 129.968 10.6037C129.783 10.7251 129.69 10.8945 129.69 11.1118C129.69 11.3291 129.776 11.4985 129.949 11.6199C130.128 11.735 130.362 11.8213 130.65 11.8788C130.944 11.9299 131.379 11.9874 131.955 12.0514C132.07 12.0705 132.179 12.0865 132.281 12.0993C132.39 12.1057 132.489 12.1153 132.579 12.1281ZM131.792 5.65657C131.293 5.65657 130.902 5.81636 130.621 6.13594C130.339 6.44912 130.199 6.86458 130.199 7.3823C130.199 7.88723 130.336 8.2963 130.611 8.60948C130.893 8.91628 131.286 9.06968 131.792 9.06968C132.297 9.06968 132.684 8.91628 132.953 8.60948C133.228 8.2963 133.365 7.88723 133.365 7.3823C133.365 6.86458 133.228 6.44912 132.953 6.13594C132.678 5.81636 132.291 5.65657 131.792 5.65657ZM132.051 16.3561C132.684 16.3561 133.183 16.2602 133.548 16.0685C133.912 15.8767 134.095 15.5923 134.095 15.2152C134.095 14.9787 134.012 14.7934 133.845 14.6591C133.685 14.5249 133.442 14.4194 133.116 14.3427C132.796 14.2724 132.342 14.2085 131.753 14.151C131.696 14.1446 131.488 14.1254 131.129 14.0935C130.771 14.0615 130.419 14.0104 130.074 13.9401L129.556 14.8029L129.613 15.0618C129.748 15.5156 130.029 15.8448 130.458 16.0493C130.893 16.2538 131.424 16.3561 132.051 16.3561Z" fill="white"/>
<path d="M42.7311 19.498H38V18.3092H48.777V19.498H44.0459V31.8562H42.7311V19.498Z" fill="white"/>
<path d="M49.4108 22.2784H50.6487V24.2821C50.8023 23.8092 51.0358 23.4129 51.3493 23.0933C51.6692 22.7673 52.0242 22.5245 52.4145 22.3647C52.8112 22.2049 53.2078 22.125 53.6045 22.125C53.8796 22.125 54.1451 22.1633 54.401 22.24C54.6633 22.3167 54.8968 22.4318 55.1016 22.5852L54.5258 23.6398C54.1867 23.4544 53.822 23.3618 53.4317 23.3618C52.9711 23.3618 52.5265 23.4896 52.0978 23.7452C51.6756 23.9945 51.3269 24.3908 51.0518 24.9341C50.7767 25.471 50.6391 26.1485 50.6391 26.9666V31.8562H49.4108V22.2784Z" fill="white"/>
<path d="M59.929 22.125C60.7416 22.125 61.4325 22.2816 62.0019 22.5948C62.5713 22.9016 63.0032 23.3458 63.2975 23.9274C63.5981 24.509 63.7485 25.2025 63.7485 26.0079V31.8562H62.6929L62.6065 29.9099C62.2546 30.5875 61.7684 31.1052 61.1478 31.4631C60.5336 31.821 59.8587 32 59.1229 32C58.4704 32 57.8946 31.885 57.3955 31.6549C56.8965 31.4184 56.5062 31.0796 56.2247 30.6386C55.9496 30.1976 55.8121 29.6767 55.8121 29.0758C55.8121 27.2542 57.1524 26.3434 59.8331 26.3434H62.5969V26.2284C62.5969 25.1993 62.389 24.4451 61.9731 23.9658C61.5637 23.4864 60.8855 23.2467 59.9386 23.2467C59.3245 23.2467 58.7934 23.3777 58.3456 23.6398C57.8978 23.9018 57.5011 24.2917 57.1556 24.8095L56.1864 24.1C56.6662 23.4353 57.2036 22.9399 57.7986 22.6139C58.3936 22.288 59.1037 22.125 59.929 22.125ZM59.3628 30.9166C60.1754 30.9166 60.8599 30.6769 61.4165 30.1976C61.9731 29.7182 62.3666 29.0726 62.5969 28.2609V27.283H59.9003C58.9726 27.283 58.2752 27.4428 57.8082 27.7624C57.3412 28.0756 57.1076 28.5262 57.1076 29.1142C57.1076 29.6703 57.306 30.1113 57.7026 30.4373C58.0993 30.7568 58.6527 30.9166 59.3628 30.9166Z" fill="white"/>
<path d="M70.0059 32C69.1614 32 68.4128 31.7795 67.7603 31.3385C67.1141 30.8974 66.6119 30.303 66.2536 29.5552C65.9017 28.801 65.7258 27.9669 65.7258 27.0529C65.7258 26.1517 65.9017 25.3272 66.2536 24.5794C66.6119 23.8251 67.1141 23.2275 67.7603 22.7865C68.4064 22.3455 69.1486 22.125 69.9867 22.125C70.7416 22.125 71.4294 22.3263 72.05 22.729C72.6705 23.1317 73.128 23.6845 73.4223 24.3876V18.3092H74.7082V31.8562H73.5182L73.4703 29.6798C73.176 30.4021 72.7185 30.971 72.0979 31.3864C71.4774 31.7955 70.78 32 70.0059 32ZM70.2842 30.8495C70.9367 30.8495 71.5061 30.6865 71.9924 30.3606C72.485 30.0282 72.8625 29.5744 73.1248 28.9991C73.3871 28.4239 73.5182 27.7752 73.5182 27.0529C73.5182 26.337 73.3871 25.6947 73.1248 25.1258C72.8625 24.5506 72.485 24.1 71.9924 23.774C71.5061 23.448 70.9367 23.2851 70.2842 23.2851C69.6316 23.2851 69.0558 23.4512 68.5568 23.7836C68.0642 24.1096 67.6835 24.5602 67.4148 25.1354C67.1461 25.7107 67.0117 26.3498 67.0117 27.0529C67.0117 27.7624 67.1461 28.4079 67.4148 28.9896C67.6835 29.5648 68.0642 30.0186 68.5568 30.351C69.0558 30.6833 69.6316 30.8495 70.2842 30.8495Z" fill="white"/>
<path d="M80.7737 32C80.0507 32 79.4429 31.8434 78.9503 31.5302C78.4577 31.2106 78.0866 30.776 77.8371 30.2263C77.594 29.6767 77.466 29.0471 77.4532 28.3376V22.2784H78.7104V28.05C78.7104 28.932 78.9151 29.6159 79.3246 30.1017C79.734 30.5811 80.329 30.8207 81.1095 30.8207C81.9285 30.8207 82.5778 30.5715 83.0577 30.0729C83.5375 29.568 83.7774 28.8553 83.7774 27.9349V22.2784H85.0346V31.8562H83.7774V30.2263C83.4831 30.8016 83.0705 31.2426 82.5394 31.5494C82.0084 31.8498 81.4198 32 80.7737 32Z" fill="white"/>
<path d="M91.5415 32C90.6522 32 89.8812 31.7827 89.2287 31.3481C88.5761 30.9134 88.0771 30.3222 87.7316 29.5744C87.3925 28.8266 87.223 27.9957 87.223 27.0817C87.223 26.2124 87.3861 25.4007 87.7124 24.6465C88.0387 23.8923 88.5249 23.2851 89.1711 22.8249C89.8173 22.3583 90.601 22.125 91.5223 22.125C92.4051 22.125 93.1793 22.3519 93.8446 22.8057C94.5164 23.2531 95.0282 23.905 95.3801 24.7615L94.1709 25.2313C93.9406 24.6241 93.5919 24.1479 93.1249 23.8028C92.6643 23.4576 92.13 23.2851 91.5223 23.2851C90.8633 23.2851 90.3067 23.4608 89.8524 23.8124C89.4046 24.1639 89.0687 24.6273 88.8448 25.2025C88.6209 25.7778 88.5089 26.4042 88.5089 27.0817C88.5089 27.7656 88.6209 28.3951 88.8448 28.9704C89.0687 29.5392 89.4046 29.9962 89.8524 30.3414C90.3067 30.6801 90.8665 30.8495 91.5319 30.8495C92.1524 30.8495 92.6898 30.6801 93.1441 30.3414C93.6047 29.9962 93.931 29.5233 94.1229 28.9224L95.2841 29.3635C94.9898 30.1944 94.5132 30.8431 93.8542 31.3097C93.1953 31.7699 92.4243 32 91.5415 32Z" fill="white"/>
<path d="M100.284 32C99.4335 32 98.7841 31.7571 98.3362 31.2714C97.8948 30.7856 97.6741 30.0857 97.6741 29.1717V23.3522H96.081V22.2784H97.6933V19.5076L98.9408 18.5776V22.2784H101.628V23.3522H98.9408V28.9704C98.9408 29.6351 99.0688 30.1209 99.3247 30.4277C99.587 30.7281 99.9773 30.8783 100.495 30.8783C100.854 30.8783 101.228 30.8016 101.618 30.6482L101.637 31.8083C101.471 31.8594 101.266 31.9041 101.023 31.9425C100.78 31.9808 100.534 32 100.284 32Z" fill="white"/>
<path d="M103.72 18.3092H105.045V20.2746H103.72V18.3092ZM103.749 22.2784H105.006V31.8562H103.749V22.2784Z" fill="white"/>
<path d="M111.839 32C110.95 32 110.154 31.7827 109.45 31.3481C108.746 30.907 108.196 30.3094 107.799 29.5552C107.409 28.7946 107.214 27.9573 107.214 27.0433C107.214 26.1357 107.409 25.308 107.799 24.5602C108.196 23.8124 108.746 23.2211 109.45 22.7865C110.154 22.3455 110.95 22.125 111.839 22.125C112.735 22.125 113.535 22.3455 114.239 22.7865C114.949 23.2211 115.502 23.8124 115.899 24.5602C116.302 25.308 116.503 26.1357 116.503 27.0433C116.503 27.9573 116.302 28.7914 115.899 29.5456C115.502 30.2998 114.949 30.8974 114.239 31.3385C113.535 31.7795 112.735 32 111.839 32ZM111.839 30.8974C112.518 30.8974 113.109 30.7281 113.615 30.3893C114.12 30.0442 114.507 29.5776 114.776 28.9896C115.051 28.4015 115.189 27.7528 115.189 27.0433C115.189 26.3338 115.051 25.6915 114.776 25.1162C114.507 24.5346 114.12 24.0776 113.615 23.7452C113.109 23.4065 112.518 23.2371 111.839 23.2371C111.168 23.2371 110.579 23.4065 110.074 23.7452C109.575 24.0776 109.191 24.5346 108.922 25.1162C108.66 25.6915 108.529 26.3338 108.529 27.0433C108.529 27.7592 108.66 28.4111 108.922 28.9991C109.191 29.5808 109.575 30.0442 110.074 30.3893C110.579 30.7281 111.168 30.8974 111.839 30.8974Z" fill="white"/>
<path d="M118.721 22.2784H119.987V23.9082C120.282 23.333 120.694 22.892 121.225 22.5852C121.756 22.2784 122.345 22.125 122.991 22.125C123.714 22.125 124.322 22.2848 124.814 22.6043C125.307 22.9175 125.678 23.349 125.928 23.8986C126.177 24.4483 126.308 25.0779 126.321 25.7874V31.8562H125.054V26.0846C125.054 25.2025 124.85 24.5186 124.44 24.0329C124.031 23.5471 123.436 23.3042 122.655 23.3042C121.83 23.3042 121.177 23.5567 120.698 24.0616C120.224 24.5602 119.987 25.2696 119.987 26.19V31.8562H118.721V22.2784Z" fill="white"/>
<path fill-rule="evenodd" clip-rule="evenodd" d="M14.5454 4.36365H29.091C30.6909 4.36365 32 5.67273 32 7.27275V29.0909C32 30.6909 30.6909 32 29.091 32H16L14.5454 27.6364H2.90902C1.30908 27.6364 0 26.3273 0 24.7273V2.9091C0 1.30908 1.30908 0 2.90902 0H13.091L14.5454 4.36365ZM23.0837 13.9345H17.7018L18.8509 17.3818C19.2292 17.9345 19.6509 18.4727 20.1019 18.9818C21.4691 17.4691 22.4582 15.7527 23.0837 13.9345ZM28.3636 29.8182C29.1636 29.8182 29.8182 29.1637 29.8182 28.3636V8C29.8182 7.19999 29.1636 6.54545 28.3636 6.54545H15.2145L17.0763 12.0582H19.1709V10.1818H21.0472V12.0582H27.6364V13.9491H24.8727C24.1891 16.1746 23.0254 18.2691 21.3818 20.0873L21.3527 20.1164L26.1527 24.8436L24.8146 26.1818L20.3055 21.6727L21.8182 26.1818L18.909 29.8182H28.3636ZM7.62712 4.66667H4.66667V22H14.6667V19.0559H7.62712V4.66667Z" fill="#FF2828"/>
</svg>
